# xmcd
#
# Track frame offsets: 
#        150
#        15614
#        36484
#        55287
#        75403
#        95285
#        117603
#        142336
#        160953
#        178490
#        204438
#        220874
#        240837
#        264219
#        287843
#
# Disc length: 4114 seconds
#
# Revision: 0
# Processed by: cddbd v1.5.2PL0 Copyright (c) Steve Scherf et al.
# Submitted via: ExactAudioCopy v0.99pb5
#
DISCID=d910100f
DTITLE=Various Artist - Misc J-Rock
DYEAR=2000
DGENRE=Instrumental Rock
TTITLE0=Lu:Na - GACKT
TTITLE1=Fragrance - GACKT
TTITLE2=Vanilla - GACKT
TTITLE3=Geki Ai Merry-Go-Round - Psycho le Cému
TTITLE4=Ai No Uta - Psycho le Cému
TTITLE5=Prism - Psycho le Cému
TTITLE6=Garden - Dir En Grey
TTITLE7=Umbrella - Dir En Grey
TTITLE8=Child Prey - Dir En Grey
TTITLE9=Lizard No Love - Machine
TTITLE10=Reset Human - Machine
TTITLE11=Call Peace - Machine
TTITLE12=Beast Of Blood - Malice Mizer
TTITLE13=Illuminati - Malice Mizer
TTITLE14=Ju Te Veux - Malice Mizer
EXTD=
EXTT0=
EXTT1=
EXTT2=
EXTT3=
EXTT4=
EXTT5=
EXTT6=
EXTT7=
EXTT8=
EXTT9=
EXTT10=
EXTT11=
EXTT12=
EXTT13=
EXTT14=
PLAYORDER=
